<svg xmlns="http://www.w3.org/2000/svg" viewBox="0 0 316.74 141.27"><defs><style>.a{fill:#e6e6e6;}.b{fill:#d3a579;}.c{fill:#fff;}</style></defs><path class="a" d="M55,73.29h0A26.53,26.53,0,0,1,32.38,61.4L0,11,17.17,0,49.56,50.36c1.19,1.85,3.57,2.52,5.4,2.52h0c1.84,0,4.22-.67,5.41-2.52L92.75,0l17.18,11L77.54,61.4A26.51,26.51,0,0,1,55,73.29Zm239.43-11L262,11.89A26.52,26.52,0,0,0,239.43,0h0a26.52,26.52,0,0,0-22.58,11.89l-18.39,28.6c-1.19,1.85-3.57,2.51-5.41,2.51h0c-1.83,0-4.21-.66-5.4-2.51l-18.39-28.6a27.39,27.39,0,0,0-45.16,0L91.72,62.25l17.17,11,32.38-50.36c1.19-1.85,3.58-2.51,5.41-2.51s4.21.66,5.41,2.51l18.38,28.6a26.56,26.56,0,0,0,22.58,11.89h0a26.56,26.56,0,0,0,22.59-11.89L234,22.93c1.19-1.85,3.58-2.51,5.41-2.51h0c1.83,0,4.22.66,5.41,2.51l32.38,50.36Z"/><circle class="b" cx="291.02" cy="17.86" r="10.99"/><path class="c" d="M16.12,117.19,5.89,94.1H8.53l9.56,21.73H16.64L26.27,94.1h2.48L18.52,117.19Z"/><path class="c" d="M41.12,115.08H55v2.11H38.68V94.1H54.51v2.11H41.12Zm-.27-10.66H53.06v2.08H40.85Z"/><path class="c" d="M67.34,117.19V94.1h2.44v23.09Z"/><path class="c" d="M94,117.38a13.3,13.3,0,0,1-4.87-.87,11.34,11.34,0,0,1-3.85-2.46,11,11,0,0,1-2.54-3.72,12.52,12.52,0,0,1,0-9.37,11.06,11.06,0,0,1,2.55-3.73,11.7,11.7,0,0,1,3.88-2.45,13,13,0,0,1,4.86-.88,13.6,13.6,0,0,1,4.83.83,9.71,9.71,0,0,1,3.75,2.5l-1.52,1.55a8.59,8.59,0,0,0-3.2-2.07,11,11,0,0,0-3.76-.63,10.5,10.5,0,0,0-3.94.71,9.34,9.34,0,0,0-5.21,5,10.15,10.15,0,0,0,0,7.61,9.14,9.14,0,0,0,2.08,3,9.24,9.24,0,0,0,3.13,2,10.62,10.62,0,0,0,3.91.71,11.54,11.54,0,0,0,3.74-.6,8.55,8.55,0,0,0,3.25-2l1.38,1.85a11,11,0,0,1-3.85,2.19A14.33,14.33,0,0,1,94,117.38Zm6.13-3.23v-8.51h2.34v8.81Z"/><path class="c" d="M112.29,117.19,122.84,94.1h2.41l10.56,23.09h-2.58l-9.69-21.67h1l-9.7,21.67Zm4.16-6.17.72-2h13.42l.73,2Z"/><path class="c" d="M163.91,115.08h13.88v2.11H161.46V94.1H177.3v2.11H163.91Zm-.27-10.66h12.2v2.08h-12.2Z"/><path class="c" d="M205.36,117.19V94.1h2l10.55,18h-1.06l10.46-18h2v23.09H227V97.76h.56l-9.63,16.49h-1.15l-9.7-16.49h.63v19.43Z"/><path class="c" d="M239.76,117.19,250.32,94.1h2.4l10.56,23.09h-2.57L251,95.52h1l-9.7,21.67Zm4.16-6.17.72-2h13.43l.72,2Z"/><path class="c" d="M273.7,117.19V94.1h2.44v23.09Z"/><path class="c" d="M286.56,117.19,297.12,94.1h2.41l10.55,23.09h-2.57l-9.7-21.67h1l-9.7,21.67Zm4.16-6.17.73-2h13.42l.72,2Z"/><path class="c" d="M87.87,137.6l4.58-9.89h.46l4.58,9.89H97L92.57,128h.22l-4.4,9.56Zm1.58-2.89.18-.41h6.05l.19.41Z"/><path class="c" d="M105.07,137.6v-9.89h3.82a5.62,5.62,0,0,1,2.75.64,4.77,4.77,0,0,1,1.83,1.76,5.26,5.26,0,0,1,0,5.1,4.74,4.74,0,0,1-1.83,1.75,5.62,5.62,0,0,1-2.75.64Zm.48-.43h3.31a5.34,5.34,0,0,0,2.53-.58,4.09,4.09,0,0,0,1.67-1.6,4.61,4.61,0,0,0,.59-2.33,4.56,4.56,0,0,0-.59-2.33,4,4,0,0,0-1.67-1.6,5.22,5.22,0,0,0-2.53-.58h-3.31Z"/><path class="c" d="M124.86,137.6l-4.44-9.89H121l4.28,9.57H125l4.28-9.57h.51l-4.44,9.89Z"/><path class="c" d="M141.16,137.66a5.43,5.43,0,0,1-2-.37,4.79,4.79,0,0,1-1.62-1.06,4.87,4.87,0,0,1-1.08-1.59,5.37,5.37,0,0,1,0-4,4.87,4.87,0,0,1,1.08-1.59,4.92,4.92,0,0,1,1.62-1.05,5.44,5.44,0,0,1,2-.38,5.34,5.34,0,0,1,2,.38,4.83,4.83,0,0,1,2.69,2.63,5,5,0,0,1,.39,2,5,5,0,0,1-.39,2,4.84,4.84,0,0,1-1.07,1.59,4.79,4.79,0,0,1-1.62,1.06A5.39,5.39,0,0,1,141.16,137.66Zm0-.44a4.77,4.77,0,0,0,1.83-.34,4.21,4.21,0,0,0,1.48-1,4.53,4.53,0,0,0,1-1.45,4.63,4.63,0,0,0,.34-1.81,4.43,4.43,0,0,0-1.32-3.27,4.5,4.5,0,0,0-1.48-1,5,5,0,0,0-1.83-.34,5,5,0,0,0-1.83.34,4.41,4.41,0,0,0-2.45,2.42,4.86,4.86,0,0,0,0,3.62,4.37,4.37,0,0,0,1,1.45,4.17,4.17,0,0,0,1.47,1A4.84,4.84,0,0,0,141.16,137.22Z"/><path class="c" d="M158.68,137.66a5.48,5.48,0,0,1-2-.37,4.88,4.88,0,0,1-1.64-1.06,4.58,4.58,0,0,1-1.08-1.59,5.37,5.37,0,0,1,0-4,4.58,4.58,0,0,1,1.08-1.59,5,5,0,0,1,1.64-1.05,5.48,5.48,0,0,1,2-.38,5.61,5.61,0,0,1,1.94.33,4.09,4.09,0,0,1,1.54,1l-.28.33a4,4,0,0,0-1.47-.92,5.28,5.28,0,0,0-1.71-.27,4.93,4.93,0,0,0-1.86.35,4.42,4.42,0,0,0-1.49,1,4.14,4.14,0,0,0-1,1.45,4.8,4.8,0,0,0,0,3.6,4.33,4.33,0,0,0,1,1.45,4.57,4.57,0,0,0,1.49,1,4.92,4.92,0,0,0,1.86.34,5.48,5.48,0,0,0,1.72-.27,3.79,3.79,0,0,0,1.44-.91l.29.35a4.28,4.28,0,0,1-1.56,1A5.76,5.76,0,0,1,158.68,137.66Zm3-1.3v-3.63h.46v3.66Z"/><path class="c" d="M169.42,137.6l4.59-9.89h.46l4.58,9.89h-.52l-4.4-9.56h.21L170,137.6Zm1.59-2.89.18-.41h6.05l.19.41Z"/><path class="c" d="M186.63,137.6v-9.89h3.81a5.63,5.63,0,0,1,2.76.64,4.77,4.77,0,0,1,1.83,1.76,5.26,5.26,0,0,1,0,5.1A4.74,4.74,0,0,1,193.2,137a5.63,5.63,0,0,1-2.76.64Zm.48-.43h3.31a5.34,5.34,0,0,0,2.53-.58,4.15,4.15,0,0,0,1.67-1.6,4.61,4.61,0,0,0,.59-2.33,4.56,4.56,0,0,0-.59-2.33,4.09,4.09,0,0,0-1.67-1.6,5.22,5.22,0,0,0-2.53-.58h-3.31Z"/><path class="c" d="M208.06,137.66a5.43,5.43,0,0,1-2-.37,4.79,4.79,0,0,1-1.62-1.06,4.69,4.69,0,0,1-1.07-1.59,5.25,5.25,0,0,1,0-4,4.69,4.69,0,0,1,1.07-1.59A4.92,4.92,0,0,1,206,128a5.48,5.48,0,0,1,2-.38,5.34,5.34,0,0,1,2,.38,4.83,4.83,0,0,1,2.69,2.63,5,5,0,0,1,.39,2,5,5,0,0,1-.39,2,4.84,4.84,0,0,1-1.07,1.59,4.79,4.79,0,0,1-1.62,1.06A5.39,5.39,0,0,1,208.06,137.66Zm0-.44a4.77,4.77,0,0,0,1.83-.34,4.21,4.21,0,0,0,1.48-1,4.37,4.37,0,0,0,1-1.45,4.63,4.63,0,0,0,.34-1.81,4.68,4.68,0,0,0-.34-1.82,4.41,4.41,0,0,0-2.46-2.41,5,5,0,0,0-1.83-.34,5,5,0,0,0-1.83.34,4.41,4.41,0,0,0-2.45,2.42,4.86,4.86,0,0,0,0,3.62,4.37,4.37,0,0,0,1,1.45,4.17,4.17,0,0,0,1.47,1A4.84,4.84,0,0,0,208.06,137.22Z"/><path class="c" d="M223.94,137.66a5.42,5.42,0,0,1-2.05-.39,3.68,3.68,0,0,1-1.48-1l.26-.34a3.72,3.72,0,0,0,1.36.91,4.81,4.81,0,0,0,1.9.38,4.36,4.36,0,0,0,1.7-.29,2.13,2.13,0,0,0,1-.75,1.89,1.89,0,0,0,.32-1.06,1.66,1.66,0,0,0-.34-1.08,2.32,2.32,0,0,0-.9-.65,7,7,0,0,0-1.22-.4c-.43-.1-.88-.21-1.32-.33a6.83,6.83,0,0,1-1.23-.45,2.23,2.23,0,0,1-.89-.77,2.11,2.11,0,0,1-.34-1.26,2.35,2.35,0,0,1,.36-1.25,2.52,2.52,0,0,1,1.1-.94,4.44,4.44,0,0,1,1.92-.36,5.39,5.39,0,0,1,1.59.25,4.79,4.79,0,0,1,1.34.66l-.21.38a4.28,4.28,0,0,0-1.32-.65,4.93,4.93,0,0,0-1.38-.21,4,4,0,0,0-1.65.29,2.13,2.13,0,0,0-1,.77,1.88,1.88,0,0,0-.31,1.06,1.65,1.65,0,0,0,.34,1.1,2.28,2.28,0,0,0,.9.65,7.93,7.93,0,0,0,1.22.4c.44.1.89.21,1.33.33a6.3,6.3,0,0,1,1.22.46,2.43,2.43,0,0,1,.89.75,2.14,2.14,0,0,1,.33,1.24,2.35,2.35,0,0,1-.36,1.25,2.54,2.54,0,0,1-1.13.93A4.78,4.78,0,0,1,223.94,137.66Z"/></svg>